<svg width="1440" height="558" viewBox="0 0 1440 558" fill="none" xmlns="http://www.w3.org/2000/svg">
<g id="back">
<ellipse id="Ellipse 1" cx="665.5" cy="473.5" rx="267.5" ry="275.5" fill="#CC615A" fill-opacity="0.9"/>
<path id="Ellipse 2" d="M613 368C613 571.241 435.033 736 215.5 736C-4.03319 736 -182 571.241 -182 368C-182 164.759 -4.03319 0 215.5 0C435.033 0 613 164.759 613 368Z" fill="#CC615A" fill-opacity="0.75"/>
<path id="Vector 1" d="M1364.99 81.5932C1403 39 1440 60.0001 1440 60.0001V560H763.031C763.031 560 684.211 556.641 763.031 488.983C841.852 421.324 1005.88 472.649 1048.44 421.324C1091 370 991.075 275.468 1105.65 194.837C1220.22 114.206 1278.54 176.123 1321.77 163.647C1364.99 151.171 1326.98 124.186 1364.99 81.5932Z" fill="#FFCC70"/>
</g>
</svg>
