<svg width="464" height="358" viewBox="0 0 464 358" fill="none" xmlns="http://www.w3.org/2000/svg">
<g id="desenho">
<path id="TriangFUNDO" d="M377.751 167.785L371.314 197.23L366.09 221.117L361.925 240.169L356.703 264.056L339.641 342.095L128.207 242.725L112.666 235.419L92.9933 226.172L77.446 218.866L58.7468 210.077L69.3477 194.39L78.163 181.345L89.3152 164.842L98.1282 151.806L197.3 5.05652L302.357 99.7972L321.065 116.668L335.982 130.12L354.693 146.99L377.751 167.785Z" fill="#F2F2F2"/>
<path id="Vector" d="M205.437 132.441C194.815 114.185 173.798 113.334 173.798 113.334C173.798 113.334 153.319 110.671 140.182 138.475C127.937 164.391 111.038 189.413 137.461 195.48L142.234 180.37L145.19 196.605C148.952 196.88 152.727 196.946 156.496 196.801C184.794 195.872 211.743 197.073 210.875 186.745C209.722 173.015 215.659 150.007 205.437 132.441Z" fill="#2F2E41"/>
<path id="Vector_2" d="M161.955 170.97C165.615 179.205 167.923 189.022 169.301 199.925L198.688 198.057C191.932 188.32 189.689 177.143 192.26 164.432L161.955 170.97Z" fill="#FFB8B8"/>
<path id="Vector_3" opacity="0.2" d="M161.955 170.97C165.615 179.205 167.923 189.022 169.301 199.925L198.688 198.057C191.932 188.32 189.689 177.143 192.26 164.432L161.955 170.97Z" fill="black"/>
<path id="Vector_4" d="M20.4298 328.672C20.4298 328.672 0.838364 338.457 10.78 346.811C20.7217 355.164 33.8541 335.753 33.8541 335.753L20.4298 328.672Z" fill="#FFB8B8"/>
<path id="Vector_5" d="M211.546 303.603L211.308 314.924L210.801 339.384V339.388L210.654 346.472H113.391L117.344 324.147L117.348 324.13L120.887 304.148L122.467 295.2V295.196L202.363 283.988L211.546 303.603Z" fill="#504F62"/>
<path id="Vector_6" d="M211.545 303.605L211.306 314.925C183.04 314.188 139.226 307.248 120.886 304.147L122.466 295.198L202.362 283.99L211.545 303.605Z" fill="#CC5E86"/>
<path id="Vector_7" d="M176.189 178.909C188.869 178.909 199.147 168.455 199.147 155.558C199.147 142.662 188.869 132.207 176.189 132.207C163.509 132.207 153.23 142.662 153.23 155.558C153.23 168.455 163.509 178.909 176.189 178.909Z" fill="#FFB8B8"/>
<path id="Vector_8" d="M217.889 316.303C217.889 316.303 220.702 341.569 203.824 339.697L201.011 314.431L186.009 299.459L143.815 298.523L112.872 327.532C112.872 327.532 111.934 297.587 115.685 294.78C119.436 291.972 127.875 285.422 127.875 285.422V280.743L102.558 229.274C102.558 229.274 117.56 198.393 129.75 197.457L145.69 196.522C145.69 196.522 151.316 193.714 151.316 192.779C151.316 191.843 150.378 184.356 155.066 186.228C155.066 186.228 155.488 176.627 160.43 179.556C160.43 179.556 175.986 191.721 191.776 180.089C191.776 180.089 199.136 178.742 198.198 182.485C197.261 186.228 198.198 189.035 200.074 189.035C201.949 189.035 210.388 191.843 210.388 193.714C210.388 194.117 210.997 197.991 211.954 203.821V203.83C215.432 225.082 223.515 272.321 223.515 272.321C223.515 272.321 231.954 284.486 217.889 316.303Z" fill="#D17697"/>
<path id="Vector_9" d="M109.37 224.508L102.942 229.179L44.1678 305.771L12.9442 330.99C12.9442 330.99 30.3927 328.188 26.7194 343.133L134.421 285.186L109.37 224.508Z" fill="#D17697"/>
<g id="wmncollar">
<circle id="Ellipse 8" cx="176.5" cy="240.5" r="3.25" fill="#D17697" stroke="#F2F2F2" stroke-width="2.5"/>
<g id="Mask Group">
<mask id="mask0" mask-type="alpha" maskUnits="userSpaceOnUse" x="172" y="229" width="9" height="9">
<g id="Mask Group_2">
<rect id="Rectangle 15" x="181" y="238" width="9" height="9" transform="rotate(-180 181 238)" fill="#C4C4C4"/>
</g>
</mask>
<g mask="url(#mask0)">
<ellipse id="Ellipse 26" cx="176.5" cy="229.562" rx="4.5" ry="5.0625" transform="rotate(-180 176.5 229.562)" fill="white"/>
</g>
</g>
<g id="Mask Group_3">
<mask id="mask1" mask-type="alpha" maskUnits="userSpaceOnUse" x="170" y="220" width="13" height="13">
<g id="Mask Group_4">
<rect id="Rectangle 15_2" x="183" y="233" width="13" height="13" transform="rotate(-180 183 233)" fill="#C4C4C4"/>
</g>
</mask>
<g mask="url(#mask1)">
<ellipse id="Ellipse 26_2" cx="176.5" cy="220.812" rx="6.5" ry="7.3125" transform="rotate(-180 176.5 220.812)" fill="white"/>
</g>
</g>
<path id="la&#195;&#167;o" d="M149 194.5C170.999 230.784 182.543 231.757 201.5 193.5" stroke="white"/>
</g>
<path id="gola" d="M210.273 203.596V203.605C209.051 210.909 169.25 209.387 163.74 209.387C158.23 209.387 153.638 208.453 148.128 204.716C142.618 200.98 145.373 196.31 145.373 196.31C145.373 196.31 150.065 192.675 150.065 191.741C150.065 190.807 149.147 183.335 153.738 185.203C153.738 185.203 154.152 175.62 158.991 178.543C158.991 178.543 175.045 191.518 190.51 179.908C190.51 179.908 197.719 178.563 196.801 182.299C195.882 186.035 196.801 188.838 198.637 188.838C200.474 188.838 208.739 191.64 208.739 193.508C208.739 193.909 209.336 197.776 210.273 203.596Z" fill="#CC5E86"/>
<path id="mao" d="M209.708 169.102C209.708 169.102 202.362 153.223 195.015 160.695C187.668 168.168 203.28 179.376 203.28 179.376L209.708 169.102Z" fill="#FFB8B8"/>
<path id="bra&#195;&#167;o" d="M208.023 165.853C208.023 165.853 196.679 180.435 193.167 181.551C193.167 181.551 203.431 222.83 216.288 234.039L223.635 272.335C223.635 272.335 254.858 259.258 247.512 237.775C247.438 237.56 247.365 237.347 247.292 237.134C241.158 219.243 232.692 202.27 222.121 186.668L208.023 165.853Z" fill="#D17697"/>
<path id="Vector_10" opacity="0.2" d="M203.646 208.615L226.238 271.847L217.974 233.551L203.646 208.615Z" fill="black"/>
<path id="Vector_11" d="M200.86 131.001L180.097 119.94L151.424 124.465L145.492 151.114L160.259 150.536L164.385 140.745V150.375L171.198 150.108L175.153 134.521L177.625 151.114L201.849 150.611L200.86 131.001Z" fill="#2F2E41"/>
<path id="Vector_12" d="M397.005 274.746L408.785 317.487C408.785 317.487 406.358 355.345 417.686 347.938C429.279 340.358 424.968 308.434 424.968 308.434L418.178 270.089L397.005 274.746Z" fill="#A0616A"/>
<path id="Vector_13" d="M403.3 154.847L413.028 164.741V211.886C413.028 211.886 418.75 220.617 417.606 222.945C416.461 225.273 415.317 225.273 416.461 227.019C417.606 228.765 418.75 229.929 417.606 231.093C416.461 232.257 416.461 235.167 417.606 236.331C418.75 237.495 421.039 239.242 419.323 240.988C417.606 242.734 415.317 241.57 417.606 247.972C419.895 254.374 423.9 256.121 422.756 258.449C421.612 260.777 421.612 266.597 421.612 266.597L397.005 270.089L391.855 204.32L403.3 154.847Z" fill="#D0CDE1"/>
<path id="Vector_14" d="M422.756 266.015L394.144 267.179L395.288 279.402L420.467 274.746L422.756 266.015Z" fill="#8C8B9C"/>
<path id="Vector_15" d="M344.072 94.0245L340.639 128.946L375.546 134.185L378.121 114.105L380.696 94.0245H344.072Z" fill="#A0616A"/>
<path id="Vector_16" opacity="0.1" d="M344.072 93.8353L340.639 128.757L375.546 133.996L378.121 113.916L380.696 93.8353H344.072Z" fill="black"/>
<path id="Vector_17" d="M268.25 260.195L287.706 302.683C287.706 302.683 291.139 322.472 296.29 323.055C301.44 323.637 306.59 302.683 306.59 302.683L299.723 291.625L291.712 260.195H268.25Z" fill="#A0616A"/>
<path id="Vector_18" d="M401.434 346.884H291.437C292.309 332.862 292.857 324.218 292.857 324.218L294.318 321.879L301.401 310.558L306.459 302.476L308.223 299.654L308.877 298.609L315.805 297.323L387.276 284.059C388.458 289.442 390.131 294.702 392.272 299.77C392.759 300.898 393.283 302.026 393.844 303.142C395.64 306.708 397.833 310.088 400.44 312.577C401.033 313.143 401.463 314.654 401.741 316.976C402.429 322.665 402.232 333.245 401.434 346.884Z" fill="#504F62"/>
<path id="Vector_19" d="M363.242 105.374C378.412 105.374 390.71 92.866 390.71 77.4365C390.71 62.007 378.412 49.4989 363.242 49.4989C348.072 49.4989 335.775 62.007 335.775 77.4365C335.775 92.866 348.072 105.374 363.242 105.374Z" fill="#A0616A"/>
<path id="Vector_20" d="M302.012 134.476L298.006 132.148C298.006 132.148 280.267 144.37 274.544 171.726C268.822 199.082 264.816 206.066 264.816 206.066C264.816 206.066 259.094 207.23 263.099 211.304C267.105 215.378 267.105 214.796 263.672 217.125C260.238 219.453 257.949 214.796 260.238 219.453C262.527 224.109 265.388 222.945 263.099 225.855C260.81 228.765 256.805 228.765 259.094 231.093C261.383 233.421 256.805 238.66 259.666 240.988C262.527 243.316 263.672 243.898 263.672 247.972C263.654 250.35 264.041 252.713 264.816 254.957H294.573C294.573 254.957 288.85 243.898 290.567 241.57C292.284 239.242 292.856 236.914 291.712 235.75C290.567 234.586 287.134 236.914 290.567 234.004C294.001 231.093 295.145 232.839 294.001 229.347C292.856 225.855 290.567 227.601 292.856 225.855C295.145 224.109 296.862 224.691 295.717 222.945C294.573 221.199 292.284 221.199 294.573 220.035C296.862 218.871 298.579 220.035 298.006 217.125C297.434 214.214 296.862 215.378 298.006 214.214C299.151 213.05 311.168 173.472 311.168 172.308C311.168 171.144 302.012 134.476 302.012 134.476Z" fill="#D0CDE1"/>
<path id="Vector_21" d="M296.29 252.629L260.238 254.957L269.394 263.687L294.573 264.269L296.29 252.629Z" fill="#8C8B9C"/>
<path id="Vector_22" d="M306.59 296.281L299.151 310.25C299.151 310.25 321.468 313.16 329.48 316.07C337.491 318.98 358.092 323.054 358.092 323.054L363.242 302.683L306.59 296.281Z" fill="#8C8B9C"/>
<path id="Vector_23" d="M371.826 302.683L378.121 321.89L403.3 316.652L400.438 298.609L371.826 302.683Z" fill="#8C8B9C"/>
<path id="Vector_24" d="M381.837 114.237C381.837 114.237 380.12 113.072 376.114 115.401C372.109 117.729 358.947 118.893 352.652 111.908C346.358 104.924 341.78 99.1037 340.063 100.268C338.346 101.432 337.202 114.819 337.202 114.819L331.479 119.475L297.717 131.698L300.578 210.272L305.728 228.315C305.728 228.315 301.722 242.284 306.873 250.432C312.023 258.581 304.011 261.491 304.011 261.491C304.011 261.491 302.295 263.819 303.439 269.639C304.584 275.46 302.295 296.995 302.295 296.995C302.295 296.995 350.936 319.112 401.865 299.905L396.143 277.788L393.282 228.315C393.282 228.315 396.143 220.167 395.571 216.674C394.999 213.182 412.738 164.291 412.738 164.291C412.738 164.291 409.877 139.846 394.999 134.608C380.12 129.369 377.831 124.131 377.831 124.131C377.831 124.131 384.698 116.565 381.837 114.237Z" fill="#D0CDE1"/>
<path id="Vector_25" d="M335.584 81.0152C335.584 81.0152 332.732 76.6635 333.829 71.977C334.484 69.3162 334.743 66.5704 334.597 63.8314C334.597 63.8314 336.901 56.2437 339.204 52.0035C341.508 47.7633 340.411 45.978 347.652 44.639C354.893 43.3 351.93 33.7038 371.02 44.0811C371.664 44.9957 372.56 45.6957 373.594 46.0929C374.629 46.4901 375.756 46.5666 376.834 46.3127C380.783 45.5317 382.21 51.1108 382.21 51.1108C382.21 51.1108 384.843 49.5487 385.83 51.7803C386.817 54.012 393.857 50.4409 393.857 65.5047C393.857 80.5685 385.846 94.0243 385.846 94.0243C385.846 94.0243 386.433 68.6853 373.378 66.1188C360.323 63.5524 346.281 56.0763 342.88 65.6725C339.479 75.2687 335.584 81.0152 335.584 81.0152Z" fill="#2F2E41"/>
<path id="Vector_26" d="M386.132 87.0401C387.554 87.0401 388.707 85.4766 388.707 83.5479C388.707 81.6192 387.554 80.0557 386.132 80.0557C384.71 80.0557 383.557 81.6192 383.557 83.5479C383.557 85.4766 384.71 87.0401 386.132 87.0401Z" fill="#A0616A"/>
<path id="Vector_27" d="M152.927 162.725C154.349 162.725 155.502 161.161 155.502 159.232C155.502 157.304 154.349 155.74 152.927 155.74C151.505 155.74 150.352 157.304 150.352 159.232C150.352 161.161 151.505 162.725 152.927 162.725Z" fill="#FFB8B8"/>
<path id="Vector_28" d="M200.721 160.702C202.143 160.702 203.296 159.138 203.296 157.21C203.296 155.281 202.143 153.718 200.721 153.718C199.299 153.718 198.146 155.281 198.146 157.21C198.146 159.138 199.299 160.702 200.721 160.702Z" fill="#FFB8B8"/>
<g id="brincodela">
<path id="Polygon 2" d="M153 159L155.598 163.5H150.402L153 159Z" fill="#CC5E86"/>
<circle id="Ellipse 4" cx="153" cy="167" r="3" fill="#CC5E86"/>
</g>
<g id="mancollar">
<g id="Colar">
<circle id="Ellipse 7" cx="350" cy="157" r="5" fill="black"/>
<g id="Ellipse 6" style="mix-blend-mode:hard-light">
<circle cx="373" cy="158" r="5" fill="black"/>
</g>
<circle id="Ellipse 5" cx="361" cy="160" r="5" fill="black"/>
<mask id="mask2" mask-type="alpha" maskUnits="userSpaceOnUse" x="368" y="153" width="10" height="10">
<g id="Ellipse 11" style="mix-blend-mode:hard-light">
<circle cx="373" cy="158" r="5" fill="black"/>
</g>
</mask>
<g mask="url(#mask2)">
<circle id="Ellipse 9" cx="376.5" cy="155.5" r="4.5" fill="#C4C4C4"/>
</g>
<mask id="mask3" mask-type="alpha" maskUnits="userSpaceOnUse" x="345" y="152" width="10" height="10">
<circle id="Ellipse 12" cx="350" cy="157" r="5" fill="black"/>
</mask>
<g mask="url(#mask3)">
<circle id="Ellipse 10" cx="346.5" cy="154.5" r="4.5" fill="#C4C4C4"/>
</g>
</g>
<g id="Group 1">
<circle id="Ellipse 13" cx="332" cy="121" r="1" fill="black"/>
<circle id="Ellipse 14" cx="333" cy="124" r="1" fill="black"/>
<circle id="Ellipse 15" cx="334" cy="127" r="1" fill="black"/>
<circle id="Ellipse 16" cx="335" cy="130" r="1" fill="black"/>
<circle id="Ellipse 17" cx="336" cy="133" r="1" fill="black"/>
<circle id="Ellipse 18" cx="337" cy="136" r="1" fill="black"/>
<path id="Ellipse 19" d="M339 139C339 139.552 338.552 140 338 140C337.448 140 337 139.552 337 139C337 138.448 337.448 138 338 138C338.552 138 339 138.448 339 139Z" fill="black"/>
<circle id="Ellipse 21" cx="339" cy="142" r="1" fill="black"/>
<circle id="Ellipse 22" cx="340" cy="145" r="1" fill="black"/>
<circle id="Ellipse 23" cx="341" cy="148" r="1" fill="black"/>
<circle id="Ellipse 24" cx="343" cy="151" r="1" fill="black"/>
</g>
<g id="Group 2">
<g id="Ellipse 13_2">
<mask id="path-59-inside-1" fill="white">
<ellipse cx="380.574" cy="153.884" rx="1.25729" ry="0.808206" transform="rotate(-150 380.574 153.884)"/>
</mask>
<ellipse cx="380.574" cy="153.884" rx="1.25729" ry="0.808206" transform="rotate(-150 380.574 153.884)" fill="black"/>
<path d="M380.351 153.756C380.297 153.848 380.225 153.902 380.176 153.926C380.132 153.948 380.114 153.945 380.137 153.944C380.189 153.941 380.318 153.958 380.478 154.05L381.478 152.318C381.036 152.063 380.53 151.923 380.042 151.946C379.566 151.969 378.958 152.168 378.619 152.756L380.351 153.756ZM380.478 154.05C380.637 154.143 380.717 154.246 380.74 154.292C380.751 154.313 380.739 154.299 380.736 154.249C380.733 154.195 380.743 154.106 380.796 154.013L382.528 155.013C382.868 154.425 382.736 153.799 382.518 153.376C382.294 152.941 381.919 152.573 381.478 152.318L380.478 154.05ZM380.796 154.013C380.85 153.92 380.922 153.867 380.971 153.842C381.015 153.82 381.033 153.824 381.01 153.825C380.958 153.827 380.829 153.81 380.669 153.718L379.669 155.45C380.111 155.705 380.617 155.846 381.105 155.823C381.582 155.8 382.189 155.601 382.528 155.013L380.796 154.013ZM380.669 153.718C380.51 153.626 380.43 153.523 380.407 153.477C380.396 153.456 380.408 153.47 380.411 153.519C380.415 153.574 380.404 153.663 380.351 153.756L378.619 152.756C378.279 153.344 378.411 153.969 378.629 154.393C378.853 154.828 379.228 155.195 379.669 155.45L380.669 153.718Z" fill="black" mask="url(#path-59-inside-1)"/>
</g>
<g id="Ellipse 14_2">
<mask id="path-61-inside-2" fill="white">
<ellipse cx="380.697" cy="151.156" rx="1.25729" ry="0.808206" transform="rotate(-150 380.697 151.156)"/>
</mask>
<ellipse cx="380.697" cy="151.156" rx="1.25729" ry="0.808206" transform="rotate(-150 380.697 151.156)" fill="black"/>
<path d="M380.474 151.027C380.421 151.12 380.349 151.173 380.3 151.198C380.256 151.22 380.237 151.216 380.261 151.215C380.312 151.213 380.441 151.23 380.601 151.322L381.601 149.59C381.16 149.335 380.654 149.194 380.165 149.218C379.689 149.24 379.082 149.439 378.742 150.027L380.474 151.027ZM380.601 151.322C380.761 151.414 380.84 151.518 380.864 151.564C380.875 151.584 380.862 151.57 380.859 151.521C380.856 151.466 380.866 151.377 380.92 151.285L382.652 152.285C382.991 151.697 382.86 151.071 382.642 150.647C382.417 150.212 382.043 149.845 381.601 149.59L380.601 151.322ZM380.92 151.285C380.973 151.192 381.045 151.139 381.094 151.114C381.138 151.092 381.157 151.095 381.134 151.097C381.082 151.099 380.953 151.082 380.793 150.99L379.793 152.722C380.235 152.977 380.74 153.118 381.229 153.094C381.705 153.072 382.312 152.872 382.652 152.285L380.92 151.285ZM380.793 150.99C380.633 150.898 380.554 150.794 380.53 150.748C380.52 150.727 380.532 150.742 380.535 150.791C380.538 150.846 380.528 150.935 380.474 151.027L378.742 150.027C378.403 150.615 378.534 151.241 378.752 151.664C378.977 152.099 379.351 152.467 379.793 152.722L380.793 150.99Z" fill="black" mask="url(#path-61-inside-2)"/>
</g>
<g id="Ellipse 15_2">
<mask id="path-63-inside-3" fill="white">
<ellipse cx="380.821" cy="148.428" rx="1.25729" ry="0.808206" transform="rotate(-150 380.821 148.428)"/>
</mask>
<ellipse cx="380.821" cy="148.428" rx="1.25729" ry="0.808206" transform="rotate(-150 380.821 148.428)" fill="black"/>
<path d="M380.598 148.299C380.544 148.392 380.472 148.445 380.423 148.47C380.379 148.492 380.361 148.488 380.384 148.487C380.436 148.485 380.565 148.502 380.725 148.594L381.725 146.862C381.283 146.607 380.777 146.466 380.289 146.489C379.813 146.512 379.205 146.711 378.866 147.299L380.598 148.299ZM380.725 148.594C380.884 148.686 380.964 148.789 380.987 148.835C380.998 148.856 380.986 148.842 380.983 148.793C380.98 148.738 380.99 148.649 381.043 148.556L382.775 149.556C383.115 148.968 382.983 148.343 382.765 147.919C382.541 147.484 382.166 147.117 381.725 146.862L380.725 148.594ZM381.043 148.556C381.097 148.464 381.169 148.41 381.218 148.386C381.262 148.363 381.28 148.367 381.257 148.368C381.205 148.371 381.076 148.354 380.916 148.262L379.916 149.994C380.358 150.249 380.864 150.389 381.352 150.366C381.828 150.343 382.436 150.144 382.775 149.556L381.043 148.556ZM380.916 148.262C380.757 148.169 380.677 148.066 380.654 148.02C380.643 147.999 380.655 148.013 380.658 148.063C380.661 148.117 380.651 148.206 380.598 148.299L378.866 147.299C378.526 147.887 378.658 148.513 378.876 148.936C379.1 149.371 379.475 149.739 379.916 149.994L380.916 148.262Z" fill="black" mask="url(#path-63-inside-3)"/>
</g>
<g id="Ellipse 16_2">
<mask id="path-65-inside-4" fill="white">
<ellipse cx="380.944" cy="145.699" rx="1.25729" ry="0.808206" transform="rotate(-150 380.944 145.699)"/>
</mask>
<ellipse cx="380.944" cy="145.699" rx="1.25729" ry="0.808206" transform="rotate(-150 380.944 145.699)" fill="black"/>
<path d="M380.721 145.57C380.668 145.663 380.596 145.716 380.547 145.741C380.503 145.763 380.484 145.76 380.507 145.758C380.559 145.756 380.688 145.773 380.848 145.865L381.848 144.133C381.406 143.878 380.901 143.737 380.412 143.761C379.936 143.783 379.329 143.982 378.989 144.57L380.721 145.57ZM380.848 145.865C381.008 145.957 381.087 146.061 381.111 146.107C381.121 146.128 381.109 146.113 381.106 146.064C381.103 146.009 381.113 145.92 381.167 145.828L382.899 146.828C383.238 146.24 383.107 145.614 382.889 145.19C382.664 144.756 382.29 144.388 381.848 144.133L380.848 145.865ZM381.167 145.828C381.22 145.735 381.292 145.682 381.341 145.657C381.385 145.635 381.404 145.638 381.38 145.64C381.329 145.642 381.2 145.625 381.04 145.533L380.04 147.265C380.481 147.52 380.987 147.661 381.476 147.637C381.952 147.615 382.559 147.416 382.899 146.828L381.167 145.828ZM381.04 145.533C380.88 145.441 380.801 145.337 380.777 145.291C380.766 145.27 380.779 145.285 380.782 145.334C380.785 145.389 380.775 145.478 380.721 145.57L378.989 144.57C378.65 145.158 378.781 145.784 378.999 146.208C379.224 146.642 379.598 147.01 380.04 147.265L381.04 145.533Z" fill="black" mask="url(#path-65-inside-4)"/>
</g>
<g id="Ellipse 17_2">
<mask id="path-67-inside-5" fill="white">
<ellipse cx="381.067" cy="142.971" rx="1.25729" ry="0.808206" transform="rotate(-150 381.067 142.971)"/>
</mask>
<ellipse cx="381.067" cy="142.971" rx="1.25729" ry="0.808206" transform="rotate(-150 381.067 142.971)" fill="black"/>
<path d="M380.845 142.842C380.791 142.935 380.719 142.988 380.67 143.013C380.626 143.035 380.608 143.031 380.631 143.03C380.683 143.027 380.812 143.044 380.972 143.137L381.972 141.405C381.53 141.15 381.024 141.009 380.536 141.032C380.06 141.055 379.452 141.254 379.113 141.842L380.845 142.842ZM380.972 143.137C381.131 143.229 381.211 143.332 381.234 143.378C381.245 143.399 381.233 143.385 381.23 143.336C381.226 143.281 381.237 143.192 381.29 143.099L383.022 144.099C383.362 143.511 383.23 142.886 383.012 142.462C382.788 142.027 382.413 141.66 381.972 141.405L380.972 143.137ZM381.29 143.099C381.344 143.006 381.416 142.953 381.465 142.928C381.509 142.906 381.527 142.91 381.504 142.911C381.452 142.914 381.323 142.897 381.163 142.804L380.163 144.536C380.605 144.791 381.111 144.932 381.599 144.909C382.075 144.886 382.683 144.687 383.022 144.099L381.29 143.099ZM381.163 142.804C381.004 142.712 380.924 142.609 380.901 142.563C380.89 142.542 380.902 142.556 380.905 142.605C380.908 142.66 380.898 142.749 380.845 142.842L379.113 141.842C378.773 142.43 378.905 143.055 379.123 143.479C379.347 143.914 379.722 144.281 380.163 144.536L381.163 142.804Z" fill="black" mask="url(#path-67-inside-5)"/>
</g>
<g id="Ellipse 18_2">
<mask id="path-69-inside-6" fill="white">
<ellipse cx="381.191" cy="140.242" rx="1.25729" ry="0.808206" transform="rotate(-150 381.191 140.242)"/>
</mask>
<ellipse cx="381.191" cy="140.242" rx="1.25729" ry="0.808206" transform="rotate(-150 381.191 140.242)" fill="black"/>
<path d="M380.968 140.113C380.915 140.206 380.843 140.259 380.794 140.284C380.749 140.306 380.731 140.303 380.754 140.302C380.806 140.299 380.935 140.316 381.095 140.408L382.095 138.676C381.653 138.421 381.148 138.28 380.659 138.304C380.183 138.327 379.575 138.526 379.236 139.113L380.968 140.113ZM381.095 140.408C381.255 140.5 381.334 140.604 381.358 140.65C381.368 140.671 381.356 140.656 381.353 140.607C381.35 140.552 381.36 140.463 381.414 140.371L383.146 141.371C383.485 140.783 383.354 140.157 383.135 139.734C382.911 139.299 382.537 138.931 382.095 138.676L381.095 140.408ZM381.414 140.371C381.467 140.278 381.539 140.225 381.588 140.2C381.632 140.178 381.651 140.182 381.627 140.183C381.576 140.185 381.447 140.168 381.287 140.076L380.287 141.808C380.728 142.063 381.234 142.204 381.723 142.18C382.199 142.158 382.806 141.959 383.146 141.371L381.414 140.371ZM381.287 140.076C381.127 139.984 381.048 139.88 381.024 139.834C381.013 139.814 381.026 139.828 381.029 139.877C381.032 139.932 381.022 140.021 380.968 140.113L379.236 139.113C378.897 139.701 379.028 140.327 379.246 140.751C379.47 141.186 379.845 141.553 380.287 141.808L381.287 140.076Z" fill="black" mask="url(#path-69-inside-6)"/>
</g>
<path id="Ellipse 19_2" d="M380.659 137.135L380.659 137.135C380.66 137.133 380.666 137.123 380.693 137.109C380.722 137.094 380.775 137.078 380.854 137.074C381.015 137.066 381.238 137.114 381.468 137.247C381.699 137.38 381.852 137.549 381.926 137.693C381.962 137.763 381.974 137.817 381.976 137.85C381.978 137.88 381.971 137.89 381.97 137.893L381.97 137.893L381.97 137.893C381.969 137.895 381.963 137.905 381.936 137.919C381.906 137.934 381.854 137.95 381.775 137.954C381.614 137.962 381.39 137.914 381.16 137.781C380.93 137.648 380.777 137.478 380.703 137.335C380.667 137.265 380.655 137.211 380.653 137.178C380.651 137.148 380.657 137.138 380.658 137.135L380.659 137.135Z" fill="black" stroke="black"/>
<g id="Ellipse 21_2">
<mask id="path-72-inside-7" fill="white">
<ellipse cx="381.438" cy="134.785" rx="1.25729" ry="0.808206" transform="rotate(-150 381.438 134.785)"/>
</mask>
<ellipse cx="381.438" cy="134.785" rx="1.25729" ry="0.808206" transform="rotate(-150 381.438 134.785)" fill="black"/>
<path d="M381.215 134.657C381.161 134.749 381.09 134.803 381.04 134.827C380.996 134.849 380.978 134.846 381.001 134.845C381.053 134.842 381.182 134.859 381.342 134.951L382.342 133.219C381.9 132.964 381.395 132.824 380.906 132.847C380.43 132.87 379.822 133.069 379.483 133.657L381.215 134.657ZM381.342 134.951C381.502 135.044 381.581 135.147 381.605 135.193C381.615 135.214 381.603 135.2 381.6 135.15C381.597 135.095 381.607 135.007 381.661 134.914L383.393 135.914C383.732 135.326 383.601 134.7 383.382 134.277C383.158 133.842 382.784 133.474 382.342 133.219L381.342 134.951ZM381.661 134.914C381.714 134.821 381.786 134.768 381.835 134.743C381.879 134.721 381.898 134.725 381.874 134.726C381.823 134.728 381.693 134.711 381.534 134.619L380.534 136.351C380.975 136.606 381.481 136.747 381.97 136.724C382.446 136.701 383.053 136.502 383.393 135.914L381.661 134.914ZM381.534 134.619C381.374 134.527 381.295 134.423 381.271 134.377C381.26 134.357 381.273 134.371 381.276 134.42C381.279 134.475 381.269 134.564 381.215 134.657L379.483 133.657C379.144 134.244 379.275 134.87 379.493 135.294C379.717 135.729 380.092 136.096 380.534 136.351L381.534 134.619Z" fill="black" mask="url(#path-72-inside-7)"/>
</g>
<g id="Ellipse 22_2">
<mask id="path-74-inside-8" fill="white">
<ellipse cx="381.561" cy="132.057" rx="1.25729" ry="0.808206" transform="rotate(-150 381.561 132.057)"/>
</mask>
<ellipse cx="381.561" cy="132.057" rx="1.25729" ry="0.808206" transform="rotate(-150 381.561 132.057)" fill="black"/>
<path d="M381.338 131.928C381.285 132.021 381.213 132.074 381.164 132.099C381.12 132.121 381.101 132.117 381.125 132.116C381.176 132.114 381.306 132.131 381.465 132.223L382.465 130.491C382.024 130.236 381.518 130.095 381.029 130.118C380.553 130.141 379.946 130.34 379.606 130.928L381.338 131.928ZM381.465 132.223C381.625 132.315 381.704 132.419 381.728 132.465C381.739 132.485 381.726 132.471 381.724 132.422C381.72 132.367 381.731 132.278 381.784 132.185L383.516 133.185C383.856 132.598 383.724 131.972 383.506 131.548C383.282 131.113 382.907 130.746 382.465 130.491L381.465 132.223ZM381.784 132.185C381.838 132.093 381.909 132.039 381.959 132.015C382.003 131.993 382.021 131.996 381.998 131.997C381.946 132 381.817 131.983 381.657 131.891L380.657 133.623C381.099 133.878 381.604 134.018 382.093 133.995C382.569 133.972 383.177 133.773 383.516 133.185L381.784 132.185ZM381.657 131.891C381.497 131.798 381.418 131.695 381.394 131.649C381.384 131.628 381.396 131.642 381.399 131.692C381.402 131.747 381.392 131.835 381.338 131.928L379.606 130.928C379.267 131.516 379.398 132.142 379.617 132.565C379.841 133 380.216 133.368 380.657 133.623L381.657 131.891Z" fill="black" mask="url(#path-74-inside-8)"/>
</g>
<g id="Ellipse 23_2">
<mask id="path-76-inside-9" fill="white">
<ellipse cx="381.685" cy="129.329" rx="1.25729" ry="0.808206" transform="rotate(-150 381.685 129.329)"/>
</mask>
<ellipse cx="381.685" cy="129.329" rx="1.25729" ry="0.808206" transform="rotate(-150 381.685 129.329)" fill="black"/>
<path d="M381.462 129.2C381.408 129.293 381.337 129.346 381.287 129.371C381.243 129.393 381.225 129.389 381.248 129.388C381.3 129.386 381.429 129.403 381.589 129.495L382.589 127.763C382.147 127.508 381.642 127.367 381.153 127.39C380.677 127.413 380.069 127.612 379.73 128.2L381.462 129.2ZM381.589 129.495C381.749 129.587 381.828 129.69 381.852 129.736C381.862 129.757 381.85 129.743 381.847 129.694C381.844 129.639 381.854 129.55 381.908 129.457L383.64 130.457C383.979 129.869 383.848 129.244 383.629 128.82C383.405 128.385 383.03 128.018 382.589 127.763L381.589 129.495ZM381.908 129.457C381.961 129.365 382.033 129.311 382.082 129.287C382.126 129.264 382.145 129.268 382.121 129.269C382.07 129.272 381.94 129.255 381.781 129.163L380.781 130.895C381.222 131.15 381.728 131.29 382.217 131.267C382.693 131.244 383.3 131.045 383.64 130.457L381.908 129.457ZM381.781 129.163C381.621 129.07 381.542 128.967 381.518 128.921C381.507 128.9 381.52 128.914 381.522 128.964C381.526 129.018 381.515 129.107 381.462 129.2L379.73 128.2C379.39 128.788 379.522 129.414 379.74 129.837C379.964 130.272 380.339 130.64 380.781 130.895L381.781 129.163Z" fill="black" mask="url(#path-76-inside-9)"/>
</g>
</g>
</g>
<g id="brinco cara">
<rect id="Rectangle 16" x="383" y="89" width="4" height="16" fill="black"/>
<path id="Vector 16" d="M385 89V85.25V84L387 85.25" stroke="black"/>
</g>
<g id="Ellipse 27">
<path d="M46 117.5C46 124.404 40.4036 130 33.5 130C26.5964 130 21 124.404 21 117.5C21 110.596 26.5964 105 33.5 105C40.4036 105 46 110.596 46 117.5Z" fill="#B4B1FF"/>
<path d="M46 153.5C46 160.404 40.4036 166 33.5 166C26.5964 166 21 160.404 21 153.5C21 146.596 26.5964 141 33.5 141C40.4036 141 46 146.596 46 153.5Z" fill="#B4B1FF"/>
<path d="M46 190.5C46 197.404 40.4036 203 33.5 203C26.5964 203 21 197.404 21 190.5C21 183.596 26.5964 178 33.5 178C40.4036 178 46 183.596 46 190.5Z" fill="#B4B1FF"/>
</g>
</g>
</svg>
