<svg width="278" height="669" viewBox="0 0 278 669" fill="none" xmlns="http://www.w3.org/2000/svg">
<g id="desenhosembrinco" clip-path="url(#clip0)">
<path id="Vector" d="M102.22 668.623C336.48 668.623 526.385 662.062 526.385 653.969C526.385 645.876 336.48 639.315 102.22 639.315C-132.04 639.315 -321.945 645.876 -321.945 653.969C-321.945 662.062 -132.04 668.623 102.22 668.623Z" fill="#D0CDE1"/>
<path id="Vector_2" d="M130.352 538.988L144.276 559.87L165.163 543.629L151.239 526.226L130.352 538.988Z" fill="#FFB8B8"/>
<path id="rigthfoot" d="M146.966 548.665C146.966 548.665 127.024 549.592 132.646 560.131C138.267 570.67 142.652 630.139 158.696 626.694C174.74 623.248 189.286 605.021 189.108 592.474C188.929 579.927 186.921 574.485 186.921 574.485C186.921 574.485 182.619 566.179 185.483 563.886C188.347 561.593 189.429 547.097 182.607 542.689C175.786 538.281 156.07 532.446 156.07 532.446C156.07 532.446 154.073 550.495 146.966 548.665Z" fill="#A39280"/>
<path id="Vector_3" d="M157.04 587.713L152.398 613.235L176.766 615.555V595.834L157.04 587.713Z" fill="#FFB8B8"/>
<path id="cal&#195;&#167;a esquerda" d="M107.145 241.999C107.145 241.999 94.3816 284.923 90.9006 310.445C90.9006 310.445 21.28 404.415 34.0437 445.019C46.8075 485.622 83.9385 566.831 83.9385 566.831C83.9385 566.831 146.597 541.308 159.361 527.387L112.947 461.26C112.947 461.26 119.909 453.139 109.466 448.499C99.023 443.858 108.306 438.058 108.306 438.058C108.306 438.058 128.032 371.931 147.757 364.971L216.218 351.049C216.218 351.049 211.576 252.44 195.332 235.038C195.332 235.038 114.107 236.198 107.145 241.999Z" fill="#757777"/>
<path id="leftfoot" d="M162.842 602.794C162.842 602.794 151.238 586.552 145.437 596.994C139.635 607.435 92.061 643.398 103.664 654.999C115.268 666.6 138.475 668.921 148.918 661.96C159.361 654.999 162.842 650.359 162.842 650.359C162.842 650.359 167.483 642.238 170.964 643.398C174.445 644.558 187.209 637.598 187.209 629.477C187.209 621.356 181.407 601.634 181.407 601.634C181.407 601.634 165.163 609.755 162.842 602.794Z" fill="#A39280"/>
<path id="cal&#195;&#167;a direita" d="M145.437 356.85L161.682 497.224C161.682 497.224 152.399 536.668 150.078 566.831C147.758 596.993 150.078 595.833 150.078 595.833C150.078 595.833 202.294 616.715 211.576 602.794C220.859 588.873 216.218 351.049 216.218 351.049L188.369 325.527L145.437 356.85Z" fill="#757777"/>
<path id="cabelo" d="M117.745 41.4725C129.791 13.0556 160.455 7.68882 160.455 7.68882C160.455 7.68882 189.98 -0.186199 214.637 37.3182C237.619 72.2754 267.257 105.027 229.671 118.98L219.742 98.1334L218.551 122.125C213.086 123.263 207.562 124.101 202.005 124.635C160.315 128.87 121.016 135.91 120.288 120.847C119.32 100.822 106.155 68.8153 117.745 41.4725Z" fill="#2F2E41"/>
<path id="Vector_4" d="M166.323 99.3045C184.907 99.3045 199.973 84.2419 199.973 65.6612C199.973 47.0805 184.907 32.0179 166.323 32.0179C147.739 32.0179 132.673 47.0805 132.673 65.6612C132.673 84.2419 147.739 99.3045 166.323 99.3045Z" fill="#FFB8B8"/>
<path id="Vector_5" d="M156.46 87.1233C156.46 87.1233 155.88 121.347 152.399 129.467C148.918 137.588 214.477 123.087 214.477 123.087C214.477 123.087 191.27 106.845 187.789 84.803L156.46 87.1233Z" fill="#FFB8B8"/>
<path id="blusa" d="M161.682 115.546L155.345 110.886L110.626 113.226L101.344 215.316C101.344 215.316 74.6558 246.639 107.145 246.639C139.635 246.639 169.804 231.558 193.011 241.999C216.218 252.44 235.944 131.788 235.944 131.788L201.253 110.886C201.253 110.886 186.049 129.467 161.682 115.546Z" fill="#A0616A"/>
<path id="Vector_6" d="M123.39 197.914L188.369 211.836V226.917L123.39 229.237C123.39 229.237 116.428 202.555 123.39 197.914Z" fill="#FFB8B8"/>
<path id="Vector_7" d="M123.39 119.026L110.626 113.226C110.626 113.226 95.542 116.706 94.3817 129.467C93.2213 142.229 71.1748 224.597 88.58 228.077C105.985 231.558 129.192 231.558 129.192 231.558C129.192 231.558 114.108 210.675 132.673 199.074L118.749 192.114C118.749 192.114 104.825 160.791 114.107 144.549C123.39 128.307 123.39 119.026 123.39 119.026Z" fill="#A0616A"/>
<path id="franja" d="M123.921 33.1487L154.651 17.0547L197.09 23.6384L205.869 62.4103L184.013 61.5698L177.907 47.3258V61.3349L167.822 60.9471L161.968 38.2692L158.31 62.4103L122.458 61.6787L123.921 33.1487Z" fill="#2F2E41"/>
<path id="Vector_8" d="M200.166 73.2084C203.584 73.2084 206.355 68.3607 206.355 62.3808C206.355 56.4008 203.584 51.5531 200.166 51.5531C196.749 51.5531 193.978 56.4008 193.978 62.3808C193.978 68.3607 196.749 73.2084 200.166 73.2084Z" fill="#FFB8B8"/>
<path id="Vector_9" opacity="0.1" d="M118.196 150.503L107.239 197.974H132.806L112.718 193.409L118.196 150.503Z" fill="black"/>
<path id="iphone" d="M250.194 228.922L249.952 228.703L255.949 222.05C256.405 221.544 256.757 220.954 256.984 220.312C257.212 219.67 257.311 218.99 257.276 218.31C257.24 217.631 257.071 216.964 256.778 216.35C256.486 215.735 256.075 215.184 255.569 214.728L241.47 202.024C240.964 201.569 240.373 201.217 239.732 200.989C239.09 200.762 238.41 200.663 237.73 200.698C237.05 200.733 236.383 200.902 235.769 201.195C235.154 201.488 234.603 201.899 234.147 202.405L201.244 238.906C200.788 239.412 200.436 240.002 200.209 240.644C199.981 241.285 199.882 241.965 199.917 242.645C199.953 243.325 200.121 243.991 200.414 244.606C200.707 245.221 201.118 245.771 201.624 246.227L215.723 258.931C216.229 259.387 216.819 259.739 217.461 259.966C218.103 260.194 218.783 260.293 219.463 260.258C220.143 260.222 220.81 260.053 221.424 259.761C222.039 259.468 222.59 259.057 223.046 258.551L245.682 233.439L245.925 233.658L250.194 228.922Z" fill="#EAD3D7"/>
<path id="Vector_10" d="M239.134 222.373C240.979 222.373 242.475 220.877 242.475 219.032C242.475 217.187 240.979 215.692 239.134 215.692C237.288 215.692 235.792 217.187 235.792 219.032C235.792 220.877 237.288 222.373 239.134 222.373Z" fill="#3F3D56"/>
<path id="Vector_11" d="M215.964 217.019C215.964 217.019 255.518 226.59 246.405 240.238C237.291 253.885 201.311 228.941 201.311 228.941L215.964 217.019Z" fill="#FFB8B8"/>
<path id="Vector_12" d="M225.501 131.788H235.944C235.944 131.788 247.547 144.549 245.226 156.15C242.906 167.751 235.944 222.277 235.944 222.277C235.944 222.277 201.133 254.76 183.728 237.358C166.323 219.956 179.087 203.715 179.087 203.715C179.087 203.715 202.294 222.277 215.057 197.914L225.501 131.788Z" fill="#A0616A"/>
<g id="japcollar">
<g id="Colar">
<path id="Ellipse 7" d="M171.009 147.178C171.009 149.878 168.769 152.067 166.007 152.067C163.245 152.067 161.005 149.878 161.005 147.178C161.005 144.478 163.245 142.289 166.007 142.289C168.769 142.289 171.009 144.478 171.009 147.178Z" fill="#EAD3D7"/>
<g id="Ellipse 6" style="mix-blend-mode:hard-light">
<path d="M194.017 148.156C194.017 150.856 191.778 153.044 189.015 153.044C186.253 153.044 184.014 150.856 184.014 148.156C184.014 145.455 186.253 143.267 189.015 143.267C191.778 143.267 194.017 145.455 194.017 148.156Z" fill="#EAD3D7"/>
</g>
<path id="Ellipse 5" d="M182.013 150.111C182.013 152.811 179.773 155 177.011 155C174.249 155 172.009 152.811 172.009 150.111C172.009 147.411 174.249 145.222 177.011 145.222C179.773 145.222 182.013 147.411 182.013 150.111Z" fill="#EAD3D7"/>
<mask id="mask0" mask-type="alpha" maskUnits="userSpaceOnUse" x="184" y="143" width="11" height="11">
<g id="Ellipse 11" style="mix-blend-mode:hard-light">
<path d="M194.017 148.156C194.017 150.856 191.778 153.044 189.015 153.044C186.253 153.044 184.014 150.856 184.014 148.156C184.014 145.455 186.253 143.267 189.015 143.267C191.778 143.267 194.017 145.455 194.017 148.156Z" fill="black"/>
</g>
</mask>
<g mask="url(#mask0)">
<path id="Ellipse 9" d="M197.018 145.711C197.018 148.141 195.003 150.111 192.517 150.111C190.031 150.111 188.015 148.141 188.015 145.711C188.015 143.281 190.031 141.311 192.517 141.311C195.003 141.311 197.018 143.281 197.018 145.711Z" fill="#2F2E41"/>
</g>
<mask id="mask1" mask-type="alpha" maskUnits="userSpaceOnUse" x="161" y="142" width="11" height="11">
<path id="Ellipse 12" d="M171.009 147.178C171.009 149.878 168.769 152.067 166.007 152.067C163.245 152.067 161.005 149.878 161.005 147.178C161.005 144.478 163.245 142.289 166.007 142.289C168.769 142.289 171.009 144.478 171.009 147.178Z" fill="black"/>
</mask>
<g mask="url(#mask1)">
<path id="Ellipse 10" d="M167.007 144.733C167.007 147.163 164.992 149.133 162.506 149.133C160.019 149.133 158.004 147.163 158.004 144.733C158.004 142.303 160.019 140.333 162.506 140.333C164.992 140.333 167.007 142.303 167.007 144.733Z" fill="#2F2E41"/>
</g>
</g>
</g>
<g id="brinco">
<path id="Ellipse 2" d="M204.239 69.5056C204.239 71.4417 202.67 73.0113 200.734 73.0113C198.798 73.0113 197.228 71.4417 197.228 69.5056C197.228 67.5695 198.798 66 200.734 66C202.67 66 204.239 67.5695 204.239 69.5056Z" fill="#7A2A1D"/>
<path id="Ellipse 3" d="M206.633 79.0487C206.633 82.4369 203.886 85.1835 200.498 85.1835C197.11 85.1835 194.363 82.4369 194.363 79.0487C194.363 75.6605 197.11 72.9138 200.498 72.9138C203.886 72.9138 206.633 75.6605 206.633 79.0487Z" fill="#E7E6E2"/>
<path id="Subtract" fill-rule="evenodd" clip-rule="evenodd" d="M206.516 79.0487C205.535 81.2527 203.325 82.7893 200.756 82.7893C198.188 82.7893 195.978 81.2527 194.997 79.0487C193.756 80.4238 193 82.2454 193 84.2436C193 88.5273 196.473 92 200.756 92C205.04 92 208.513 88.5273 208.513 84.2436C208.513 82.2454 207.757 80.4238 206.516 79.0487Z" fill="#7A2A1D"/>
</g>
<path id="Vector 1" d="M151.009 112C148.287 126.204 150.894 133.103 161 144" stroke="#EAD3D7"/>
<path id="Vector 2" d="M194 145C204.252 138.586 206.601 132.123 205.5 113.5" stroke="#EAD3D7"/>
</g>
<defs>
<clipPath id="clip0">
<rect width="278" height="669" fill="white"/>
</clipPath>
</defs>
</svg>
