<svg width="278" height="669" viewBox="0 0 278 669" fill="none" xmlns="http://www.w3.org/2000/svg">
<g id="japbrinco2" clip-path="url(#clip0)">
<path id="Vector" d="M130.352 538.988L144.276 559.87L165.163 543.629L151.239 526.226L130.352 538.988Z" fill="#FFB8B8"/>
<path id="rigthfoot" d="M146.966 548.665C146.966 548.665 127.024 549.592 132.646 560.131C138.267 570.67 142.652 630.139 158.696 626.694C174.74 623.248 189.286 605.021 189.108 592.474C188.929 579.927 186.921 574.485 186.921 574.485C186.921 574.485 182.619 566.179 185.483 563.886C188.347 561.593 189.429 547.097 182.607 542.689C175.786 538.281 156.07 532.446 156.07 532.446C156.07 532.446 154.073 550.495 146.966 548.665Z" fill="#A39280"/>
<path id="Vector_2" d="M157.04 587.713L152.398 613.235L176.766 615.555V595.834L157.04 587.713Z" fill="#FFB8B8"/>
<path id="cal&#195;&#167;a esquerda" d="M107.145 241.999C107.145 241.999 94.3816 284.923 90.9006 310.445C90.9006 310.445 21.28 404.415 34.0437 445.019C46.8075 485.622 83.9385 566.831 83.9385 566.831C83.9385 566.831 146.597 541.308 159.361 527.387L112.947 461.26C112.947 461.26 119.909 453.139 109.466 448.499C99.023 443.858 108.306 438.058 108.306 438.058C108.306 438.058 128.032 371.931 147.757 364.971L216.218 351.049C216.218 351.049 211.576 252.44 195.332 235.038C195.332 235.038 114.107 236.198 107.145 241.999Z" fill="#757777"/>
<path id="leftfoot" d="M162.842 602.794C162.842 602.794 151.238 586.552 145.437 596.994C139.635 607.435 92.061 643.398 103.664 654.999C115.268 666.6 138.475 668.921 148.918 661.96C159.361 654.999 162.842 650.359 162.842 650.359C162.842 650.359 167.483 642.238 170.964 643.398C174.445 644.558 187.209 637.598 187.209 629.477C187.209 621.356 181.407 601.634 181.407 601.634C181.407 601.634 165.163 609.755 162.842 602.794Z" fill="#A39280"/>
<path id="cal&#195;&#167;a direita" d="M145.437 356.85L161.682 497.224C161.682 497.224 152.399 536.668 150.078 566.831C147.758 596.993 150.078 595.833 150.078 595.833C150.078 595.833 202.294 616.715 211.576 602.794C220.859 588.873 216.218 351.049 216.218 351.049L188.369 325.527L145.437 356.85Z" fill="#757777"/>
<path id="cabelo" d="M117.745 41.4725C129.791 13.0556 160.455 7.68882 160.455 7.68882C160.455 7.68882 189.98 -0.186199 214.637 37.3182C237.619 72.2754 267.257 105.027 229.671 118.98L219.742 98.1334L218.551 122.125C213.086 123.263 207.562 124.101 202.005 124.635C160.315 128.87 121.016 135.91 120.288 120.847C119.32 100.822 106.155 68.8153 117.745 41.4725Z" fill="#2F2E41"/>
<path id="Vector_3" d="M166.323 99.3045C184.907 99.3045 199.973 84.2419 199.973 65.6612C199.973 47.0805 184.907 32.0179 166.323 32.0179C147.739 32.0179 132.673 47.0805 132.673 65.6612C132.673 84.2419 147.739 99.3045 166.323 99.3045Z" fill="#FFB8B8"/>
<path id="Vector_4" d="M156.46 87.1233C156.46 87.1233 155.88 121.347 152.399 129.467C148.918 137.588 214.477 123.087 214.477 123.087C214.477 123.087 191.27 106.845 187.789 84.803L156.46 87.1233Z" fill="#FFB8B8"/>
<path id="blusa" d="M161.682 115.546L155.345 110.886L110.626 113.226L101.344 215.316C101.344 215.316 74.6558 246.639 107.145 246.639C139.635 246.639 169.804 231.558 193.011 241.999C216.218 252.44 235.944 131.788 235.944 131.788L201.253 110.886C201.253 110.886 186.049 129.467 161.682 115.546Z" fill="#A0616A"/>
<path id="Vector_5" d="M123.39 197.914L188.369 211.836V226.917L123.39 229.237C123.39 229.237 116.428 202.555 123.39 197.914Z" fill="#FFB8B8"/>
<path id="Vector_6" d="M123.39 119.026L110.626 113.226C110.626 113.226 95.542 116.706 94.3817 129.467C93.2213 142.229 71.1748 224.597 88.58 228.077C105.985 231.558 129.192 231.558 129.192 231.558C129.192 231.558 114.108 210.675 132.673 199.074L118.749 192.114C118.749 192.114 104.825 160.791 114.107 144.549C123.39 128.307 123.39 119.026 123.39 119.026Z" fill="#A0616A"/>
<path id="franja" d="M123.921 33.1487L154.651 17.0547L197.09 23.6384L205.869 62.4103L184.013 61.5698L177.907 47.3258V61.3349L167.822 60.9471L161.968 38.2692L158.31 62.4103L122.458 61.6787L123.921 33.1487Z" fill="#2F2E41"/>
<path id="Vector_7" d="M200.166 73.2084C203.584 73.2084 206.355 68.3607 206.355 62.3808C206.355 56.4008 203.584 51.5531 200.166 51.5531C196.749 51.5531 193.978 56.4008 193.978 62.3808C193.978 68.3607 196.749 73.2084 200.166 73.2084Z" fill="#FFB8B8"/>
<path id="Vector_8" opacity="0.1" d="M118.196 150.503L107.239 197.974H132.806L112.718 193.409L118.196 150.503Z" fill="black"/>
<path id="iphone" d="M250.194 228.922L249.952 228.703L255.949 222.05C256.405 221.544 256.757 220.954 256.984 220.312C257.212 219.67 257.311 218.99 257.276 218.31C257.24 217.631 257.071 216.964 256.778 216.35C256.486 215.735 256.075 215.184 255.569 214.728L241.47 202.024C240.964 201.569 240.373 201.217 239.732 200.989C239.09 200.762 238.41 200.663 237.73 200.698C237.05 200.733 236.383 200.902 235.769 201.195C235.154 201.488 234.603 201.899 234.147 202.405L201.244 238.906C200.788 239.412 200.436 240.002 200.209 240.644C199.981 241.285 199.882 241.965 199.917 242.645C199.953 243.325 200.121 243.991 200.414 244.606C200.707 245.221 201.118 245.771 201.624 246.227L215.723 258.931C216.229 259.387 216.819 259.739 217.461 259.966C218.103 260.194 218.783 260.293 219.463 260.258C220.143 260.222 220.81 260.053 221.424 259.761C222.039 259.468 222.59 259.057 223.046 258.551L245.682 233.439L245.925 233.658L250.194 228.922Z" fill="#EAD3D7"/>
<path id="Vector_9" d="M239.134 222.373C240.979 222.373 242.475 220.877 242.475 219.032C242.475 217.187 240.979 215.692 239.134 215.692C237.288 215.692 235.792 217.187 235.792 219.032C235.792 220.877 237.288 222.373 239.134 222.373Z" fill="#3F3D56"/>
<path id="Vector_10" d="M215.964 217.019C215.964 217.019 255.518 226.59 246.405 240.238C237.291 253.885 201.311 228.941 201.311 228.941L215.964 217.019Z" fill="#FFB8B8"/>
<path id="Vector_11" d="M225.501 131.788H235.944C235.944 131.788 247.547 144.549 245.226 156.15C242.906 167.751 235.944 222.277 235.944 222.277C235.944 222.277 201.133 254.76 183.728 237.358C166.323 219.956 179.087 203.715 179.087 203.715C179.087 203.715 202.294 222.277 215.057 197.914L225.501 131.788Z" fill="#A0616A"/>
<g id="japcollar">
<g id="Colar">
<path id="Ellipse 7" d="M171.009 147.178C171.009 149.878 168.769 152.067 166.007 152.067C163.245 152.067 161.005 149.878 161.005 147.178C161.005 144.478 163.245 142.289 166.007 142.289C168.769 142.289 171.009 144.478 171.009 147.178Z" fill="#EAD3D7"/>
<g id="Ellipse 6" style="mix-blend-mode:hard-light">
<path d="M194.017 148.156C194.017 150.856 191.778 153.044 189.015 153.044C186.253 153.044 184.014 150.856 184.014 148.156C184.014 145.455 186.253 143.267 189.015 143.267C191.778 143.267 194.017 145.455 194.017 148.156Z" fill="#EAD3D7"/>
</g>
<path id="Ellipse 5" d="M182.013 150.111C182.013 152.811 179.773 155 177.011 155C174.249 155 172.009 152.811 172.009 150.111C172.009 147.411 174.249 145.222 177.011 145.222C179.773 145.222 182.013 147.411 182.013 150.111Z" fill="#EAD3D7"/>
<mask id="mask0" mask-type="alpha" maskUnits="userSpaceOnUse" x="184" y="143" width="11" height="11">
<g id="Ellipse 11" style="mix-blend-mode:hard-light">
<path d="M194.017 148.156C194.017 150.856 191.778 153.044 189.015 153.044C186.253 153.044 184.014 150.856 184.014 148.156C184.014 145.455 186.253 143.267 189.015 143.267C191.778 143.267 194.017 145.455 194.017 148.156Z" fill="black"/>
</g>
</mask>
<g mask="url(#mask0)">
<path id="Ellipse 9" d="M197.018 145.711C197.018 148.141 195.003 150.111 192.517 150.111C190.031 150.111 188.015 148.141 188.015 145.711C188.015 143.281 190.031 141.311 192.517 141.311C195.003 141.311 197.018 143.281 197.018 145.711Z" fill="#2F2E41"/>
</g>
<mask id="mask1" mask-type="alpha" maskUnits="userSpaceOnUse" x="161" y="142" width="11" height="11">
<path id="Ellipse 12" d="M171.009 147.178C171.009 149.878 168.769 152.067 166.007 152.067C163.245 152.067 161.005 149.878 161.005 147.178C161.005 144.478 163.245 142.289 166.007 142.289C168.769 142.289 171.009 144.478 171.009 147.178Z" fill="black"/>
</mask>
<g mask="url(#mask1)">
<path id="Ellipse 10" d="M167.007 144.733C167.007 147.163 164.992 149.133 162.506 149.133C160.019 149.133 158.004 147.163 158.004 144.733C158.004 142.303 160.019 140.333 162.506 140.333C164.992 140.333 167.007 142.303 167.007 144.733Z" fill="#2F2E41"/>
</g>
</g>
</g>
<g id="brinco">
<path id="Ellipse 2" d="M204.239 69.5056C204.239 71.4417 202.67 73.0113 200.734 73.0113C198.798 73.0113 197.228 71.4417 197.228 69.5056C197.228 67.5695 198.798 66 200.734 66C202.67 66 204.239 67.5695 204.239 69.5056Z" fill="#7A2A1D"/>
<path id="Ellipse 3" d="M206.633 79.0487C206.633 82.4369 203.886 85.1835 200.498 85.1835C197.11 85.1835 194.363 82.4369 194.363 79.0487C194.363 75.6605 197.11 72.9138 200.498 72.9138C203.886 72.9138 206.633 75.6605 206.633 79.0487Z" fill="#E7E6E2"/>
<path id="Subtract" fill-rule="evenodd" clip-rule="evenodd" d="M206.516 79.0487C205.535 81.2527 203.325 82.7893 200.756 82.7893C198.188 82.7893 195.978 81.2527 194.997 79.0487C193.756 80.4238 193 82.2454 193 84.2436C193 88.5273 196.473 92 200.756 92C205.04 92 208.513 88.5273 208.513 84.2436C208.513 82.2454 207.757 80.4238 206.516 79.0487Z" fill="#7A2A1D"/>
</g>
<path id="Vector 1" d="M151.009 112C148.287 126.204 150.894 133.103 161 144" stroke="#EAD3D7"/>
<g id="dogg">
<path id="patatras" d="M75.0602 633.561C73.8734 633.56 72.7079 633.251 71.6815 632.666C70.6552 632.081 69.8043 631.241 69.2149 630.23C68.6255 629.219 68.3184 628.073 68.3247 626.908C68.3309 625.743 68.6503 624.601 69.2506 623.596V623.596L78.6923 607.776L90.3348 614.468L80.893 630.288C80.2966 631.286 79.4443 632.113 78.421 632.687C77.3977 633.262 76.239 633.563 75.0602 633.561Z" fill="#A0616A"/>
<path id="rabodocao" d="M112.112 597.405C116.697 597.405 120.415 593.757 120.415 589.257C120.415 584.757 116.697 581.109 112.112 581.109C107.526 581.109 103.809 584.757 103.809 589.257C103.809 593.757 107.526 597.405 112.112 597.405Z" fill="#A0616A"/>
<path id="pratafrente" d="M38.529 633.561C37.342 633.56 36.1765 633.251 35.15 632.666C34.1236 632.081 33.2727 631.241 32.6833 630.23C32.0939 629.219 31.7868 628.073 31.7931 626.908C31.7994 625.743 32.1189 624.601 32.7193 623.596L42.161 607.776L53.8032 614.468L44.3615 630.288C43.765 631.286 42.9128 632.113 41.8895 632.687C40.8663 633.261 39.7077 633.563 38.529 633.561Z" fill="#A0616A"/>
<path id="Vector_12" d="M92.8901 622.987H51.0542C45.3607 622.981 39.9023 620.759 35.8764 616.808C31.8505 612.857 29.5859 607.5 29.5795 601.913V595.676C29.5818 593.736 30.3682 591.875 31.7662 590.503C33.1643 589.131 35.0598 588.36 37.037 588.357H92.8901C97.5696 588.357 102.057 590.182 105.366 593.429C108.675 596.676 110.534 601.08 110.534 605.672C110.534 610.265 108.675 614.669 105.366 617.916C102.057 621.163 97.5696 622.987 92.8901 622.987Z" fill="#212222"/>
<path id="Ellipse 29" d="M35 598.5C35 599.881 33.8807 601 32.5 601C31.1193 601 30 599.881 30 598.5C30 597.119 31.1193 596 32.5 596C33.8807 596 35 597.119 35 598.5Z" fill="#FFB8B8"/>
<path id="Ellipse 28" d="M42 599.5C42 600.881 40.8807 602 39.5 602C38.1193 602 37 600.881 37 599.5C37 598.119 38.1193 597 39.5 597C40.8807 597 42 598.119 42 599.5Z" fill="#FFB8B8"/>
<path id="pata2" d="M90.9076 638.949C89.1191 638.947 87.4043 638.249 86.1396 637.007C84.8749 635.766 84.1635 634.084 84.1614 632.328V613.995H97.6539V632.328C97.6518 634.084 96.9404 635.766 95.6757 637.007C94.411 638.249 92.6962 638.947 90.9076 638.949Z" fill="#212222"/>
<path id="pata1" d="M51.7563 638.949C49.9678 638.947 48.253 638.249 46.9883 637.007C45.7235 635.766 45.0122 634.084 45.0101 632.328V613.995H58.5026V632.328C58.5005 634.084 57.7891 635.766 56.5244 637.007C55.2597 638.249 53.5449 638.947 51.7563 638.949Z" fill="#212222"/>
<path id="orelha1" d="M42.4154 563.537H25.8094V542.148C25.8094 539.987 26.6842 537.915 28.2413 536.387C29.7984 534.858 31.9103 534 34.1124 534C36.3145 534 38.4264 534.858 39.9835 536.387C41.5406 537.915 42.4154 539.987 42.4154 542.148V563.537Z" fill="#A0616A"/>
<path id="Vector_13" d="M41.0988 593.84H13.6338C12.0465 593.839 10.5246 593.219 9.40218 592.118C8.27974 591.016 7.64834 589.523 7.64648 587.965V573.847C7.65222 568.886 9.66283 564.13 13.2372 560.623C16.8117 557.115 21.6579 555.142 26.7129 555.136H31.0945C35.3342 555.141 39.3989 556.796 42.3968 559.738C45.3947 562.68 47.081 566.669 47.0859 570.829V587.965C47.0841 589.523 46.4527 591.016 45.3303 592.118C44.2079 593.219 42.6861 593.839 41.0988 593.84Z" fill="#212222"/>
<path id="orelha2" d="M42.4154 563.537H30.9988V539.602C30.9988 538.116 31.6002 536.691 32.6707 535.641C33.7412 534.59 35.1932 534 36.7071 534C38.2211 534 39.673 534.59 40.7435 535.641C41.814 536.691 42.4154 538.116 42.4154 539.602V563.537Z" fill="#1D1D1E"/>
<path id="focinho" d="M39.5699 593.665H9.47143C7.26933 593.665 5.15741 592.806 3.60029 591.278C2.04317 589.75 1.1684 587.678 1.1684 585.517C1.1684 583.355 2.04317 581.283 3.60029 579.755C5.15741 578.227 7.26933 577.368 9.47143 577.368H39.5699V593.665Z" fill="#212222"/>
<path id="fucinho" d="M1.94602 588.807C3.02078 588.807 3.89205 587.268 3.89205 585.37C3.89205 583.471 3.02078 581.932 1.94602 581.932C0.871264 581.932 0 583.471 0 585.37C0 587.268 0.871264 588.807 1.94602 588.807Z" fill="#A0616A"/>
<path id="Ellipse 26" d="M52 591.5C52 592.881 50.8807 594 49.5 594C48.1193 594 47 592.881 47 591.5C47 590.119 48.1193 589 49.5 589C50.8807 589 52 590.119 52 591.5Z" fill="#FFB8B8"/>
<path id="Ellipse 27" d="M48 596.5C48 597.881 46.8807 599 45.5 599C44.1193 599 43 597.881 43 596.5C43 595.119 44.1193 594 45.5 594C46.8807 594 48 595.119 48 596.5Z" fill="#FFB8B8"/>
</g>
<path id="linhapequena" d="M44.8648 247.134L45.4427 247.861L45.7368 246.956L45.9634 246.258L46.0459 246.004L45.8837 245.8C39.086 237.254 36.1342 226.298 35.3887 215.008C34.6433 203.72 36.106 192.137 38.1014 182.378C39.8856 173.689 42.2966 165.501 45.2439 158.116L45.2441 158.115C52.287 140.402 57.3558 123.86 60.3056 108.95C62.6756 96.97 63.694 85.9941 63.326 76.3296C62.6872 59.5581 58.0195 52.43 57.9215 52.2852L57.3793 51.4836L57.0347 52.4147L56.787 53.0838L56.698 53.3243L56.8379 53.5314L56.8381 53.5316C56.8694 53.5794 61.327 60.3825 61.9382 76.5758C62.498 91.4053 59.8583 117.48 44.0241 157.303C41.0247 164.819 38.5752 173.142 36.764 181.964L36.7639 181.964C34.3173 193.929 33.383 205.013 33.9941 214.905C34.8173 228.229 38.4621 239.085 44.8648 247.134Z" fill="#2F2E41" stroke="#2F2E41"/>
<path id="Vector 2" d="M194 145C204.252 138.586 206.601 132.123 205.5 113.5" stroke="#EAD3D7"/>
<g id="linhagrande" filter="url(#filter0_d)">
<path d="M43.8942 331.44C52.5747 319.032 58.4866 301.968 61.4658 280.72C63.6778 264.945 64.2562 247.152 63.1853 227.837C62.3872 213.597 60.762 200.127 58.3694 187.924C45.6916 122.916 46.5216 80.7473 49.4502 56.8196C52.6613 30.5836 59.0453 19.7938 59.1094 19.688L58.9184 18.5983C58.8527 18.7066 52.3024 29.7467 49.0194 56.5149C47.1268 71.9469 46.6635 89.5792 47.6423 108.922C48.8607 132.994 52.3301 159.823 57.9543 188.663C60.325 200.754 61.9356 214.1 62.7266 228.211C64.483 259.89 62.6135 303.317 43.7324 330.306L43.8942 331.44Z" fill="#2F2E41"/>
<path d="M43.3985 331.526L43.574 332.757L44.3016 331.717C53.0448 319.219 58.9757 302.068 61.9615 280.773C64.1789 264.959 64.7575 247.134 63.6852 227.793L63.6852 227.793C62.886 213.533 61.2583 200.04 58.8609 187.813C46.1915 122.847 47.0258 80.7318 49.9471 56.8638C51.5488 43.7777 53.9404 34.5547 55.9343 28.5989C56.9313 25.6209 57.8289 23.4594 58.4789 22.0399C58.8039 21.3301 59.067 20.8058 59.2496 20.4577C59.3409 20.2836 59.4121 20.1536 59.4609 20.0664C59.5086 19.9813 59.534 19.9385 59.5355 19.936L59.5356 19.9359L59.6352 19.7715L59.6027 19.5862L59.4117 18.4965L59.1858 17.2077L58.4925 18.3502C58.3849 18.5273 51.8133 29.6382 48.5225 56.4705C46.6257 71.9372 46.1624 89.599 47.1423 108.963C48.3621 133.064 51.8351 159.916 57.4627 188.774L57.4628 188.775C59.8287 200.84 61.4368 214.164 62.2268 228.255C63.1039 244.076 63.0746 262.817 60.473 280.963C57.8704 299.116 52.6994 316.63 43.3249 330.03L43.2086 330.196L43.2367 330.392L43.3985 331.526Z" stroke="#2F2E41"/>
</g>
<path id="leftarm" d="M223.122 218.883L231.114 139.938C231.114 139.938 247.878 90.1005 231.514 88.8791C215.149 87.6576 214 136.106 214 136.106L185.499 222.491C185.499 222.491 201.14 237.807 223.122 218.883Z" fill="#FFB8B8"/>
</g>
<defs>
<filter id="filter0_d" x="38.6849" y="15.8171" width="30.0237" height="326.256" filterUnits="userSpaceOnUse" color-interpolation-filters="sRGB">
<feFlood flood-opacity="0" result="BackgroundImageFix"/>
<feColorMatrix in="SourceAlpha" type="matrix" values="0 0 0 0 0 0 0 0 0 0 0 0 0 0 0 0 0 0 127 0"/>
<feOffset dy="4"/>
<feGaussianBlur stdDeviation="2"/>
<feColorMatrix type="matrix" values="0 0 0 0 0 0 0 0 0 0 0 0 0 0 0 0 0 0 0.25 0"/>
<feBlend mode="normal" in2="BackgroundImageFix" result="effect1_dropShadow"/>
<feBlend mode="normal" in="SourceGraphic" in2="effect1_dropShadow" result="shape"/>
</filter>
<clipPath id="clip0">
<rect width="278" height="669" fill="white"/>
</clipPath>
</defs>
</svg>
